<svg xmlns="http://www.w3.org/2000/svg" xmlns:v="https://vecta.io/nano">
  <defs>
    <g id="logo">
      <path d="M123.468 21.05c-2.417 0-4.328-.721-5.733-2.164s-2.108-3.26-2.108-5.452c0-2.173.731-3.991 2.192-5.452 1.48-1.461 3.363-2.192 5.649-2.192 2.342 0 4.178.759 5.509 2.276 1.349 1.518 2.023 3.307 2.023 5.368v1.49h-11.214c.263.843.712 1.48 1.349 1.911.656.431 1.434.646 2.333.646 1.012 0 1.836-.206 2.473-.618.656-.431 1.106-.89 1.349-1.377l3.092 1.855c-.394.862-1.181 1.696-2.361 2.501s-2.698 1.209-4.553 1.209zm-3.597-9.331h6.885c-.075-.562-.403-1.105-.983-1.63-.562-.543-1.349-.815-2.361-.815-.768 0-1.48.215-2.136.646-.656.412-1.124 1.012-1.405 1.799zM106.942 23.58c1.293 0 2.277-.347 2.951-1.04.694-.693 1.04-1.527 1.04-2.501v-.984c-1.011 1.143-2.492 1.714-4.44 1.714-1.968 0-3.654-.665-5.059-1.995-1.405-1.349-2.108-3.176-2.108-5.48 0-2.23.703-4.038 2.108-5.424 1.424-1.386 3.11-2.08 5.059-2.08 1.93 0 3.41.665 4.44 1.995V6.042h4.075v13.462c0 1.049-.159 2.042-.477 2.979a7.68 7.68 0 0 1-1.434 2.529c-.618.768-1.461 1.368-2.529 1.799-1.049.45-2.258.674-3.626.674-1.705 0-3.213-.421-4.524-1.265-1.293-.824-2.211-1.911-2.755-3.26l3.401-1.827c.337.787.852 1.387 1.546 1.799.693.431 1.471.646 2.332.646zm-2.417-12.9c-.693.675-1.039 1.546-1.039 2.614s.346 1.949 1.039 2.642c.712.675 1.612 1.012 2.698 1.012s1.977-.337 2.67-1.012c.712-.693 1.068-1.574 1.068-2.642s-.356-1.939-1.068-2.614c-.693-.693-1.583-1.04-2.67-1.04s-1.986.347-2.698 1.04zM90.04 21.05c-2.024 0-3.747-.693-5.171-2.08s-2.136-3.232-2.136-5.537c0-2.248.721-4.085 2.164-5.508S88.054 5.79 90.04 5.79c.937 0 1.827.178 2.67.534.843.337 1.48.787 1.911 1.349V0h4.075v20.797h-4.075v-1.63c-.431.562-1.068 1.021-1.911 1.377-.843.337-1.733.506-2.67.506zm-2.08-10.314c-.712.712-1.068 1.611-1.068 2.698s.356 1.995 1.068 2.726c.731.712 1.668 1.068 2.811 1.068 1.124 0 2.052-.365 2.782-1.096s1.096-1.63 1.096-2.698-.365-1.967-1.096-2.698-1.658-1.096-2.782-1.096c-1.143 0-2.08.365-2.811 1.096zM59.461 20.798V6.043h4.131v2.445l5.003-2.445v3.774l-5.003 2.803v8.178h-4.131zm-8.298.252c-2.417 0-4.328-.721-5.733-2.164s-2.108-3.26-2.108-5.452c0-2.173.731-3.991 2.192-5.452 1.48-1.461 3.363-2.192 5.649-2.192 2.342 0 4.178.759 5.508 2.276 1.349 1.518 2.023 3.307 2.023 5.368v1.49H47.481c.262.843.712 1.48 1.349 1.911.656.431 1.433.646 2.333.646 1.012 0 1.836-.206 2.473-.618.656-.431 1.105-.89 1.349-1.377l3.092 1.855c-.393.862-1.18 1.696-2.361 2.501s-2.698 1.209-4.553 1.209zm-3.597-9.331h6.886c-.075-.562-.403-1.105-.984-1.63-.562-.543-1.349-.815-2.361-.815-.768 0-1.48.215-2.136.646-.656.412-1.124 1.012-1.405 1.799zM31.678 27.233l2.726-6.548-5.818-14.643h4.665l3.569 10.005 3.344-10.005h4.778l-8.431 21.191h-4.834zM19.785 21.05c-2.024 0-3.747-.693-5.171-2.08s-2.136-3.232-2.136-5.537c0-2.248.721-4.085 2.164-5.508s3.157-2.136 5.143-2.136c.937 0 1.827.178 2.67.534.843.337 1.48.787 1.911 1.349v-1.63h4.075v14.755h-4.075v-1.63c-.431.562-1.068 1.021-1.911 1.377-.843.337-1.733.506-2.67.506zm-2.08-10.314c-.712.712-1.068 1.611-1.068 2.698s.356 1.995 1.068 2.726c.731.712 1.668 1.068 2.81 1.068 1.124 0 2.052-.365 2.782-1.096s1.096-1.63 1.096-2.698-.365-1.967-1.096-2.698S21.64 9.64 20.516 9.64c-1.143 0-2.08.365-2.81 1.096z M0 20.797V1.124h4.216v15.879h8.853v3.794H0zM70.378 6.022H84.15c0 2.107-1.708 3.814-3.814 3.814h-9.957V6.022zm0 10.921h9.957c2.106 0 3.814 1.708 3.814 3.814H70.378v-3.814zm0-5.46h5.982c2.106 0 3.814 1.708 3.814 3.814h-9.797v-3.814z"/>
    </g>
    <g id="sun">
      <path d="M58.976 53.736L51.373 3.149A1 1 0 0 1 52.362 2h17.662a1 1 0 0 1 .987 1.161l-7.925 48.526c-.17 1.042 1.181 1.602 1.798.745l36.018-50.017a1 1 0 0 1 .811-.416H117a1 1 0 0 1 1 1v15.381a1 1 0 0 1-.409.806L68.026 55.527c-.84.616-.297 1.944.733 1.796l48.099-6.907a1 1 0 0 1 1.142.99v16.582a1 1 0 0 1-1.149.989l-47.99-7.254c-1.036-.157-1.585 1.183-.737 1.798l49.463 35.89a1 1 0 0 1 .413.81V116a1 1 0 0 1-1 1h-15.286a1 1 0 0 1-.813-.418L64.884 66.193c-.615-.86-1.97-.302-1.801.742l7.928 48.906a1 1 0 0 1-.987 1.16H52.367a1 1 0 0 1-.988-1.153l7.592-49.063c.16-1.036-1.178-1.589-1.796-.742L20.3 116.589a1 1 0 0 1-.808.411H5a1 1 0 0 1-1-1v-15.78a1 1 0 0 1 .413-.81l49.463-35.89c.848-.615.299-1.955-.737-1.798l-47.99 7.254A1 1 0 0 1 4 67.988V51.406a1 1 0 0 1 1.142-.99l47.97 6.889c1.038.149 1.577-1.197.721-1.805L4.421 20.393A1 1 0 0 1 4 19.578V3a1 1 0 0 1 1-1h14.483a1 1 0 0 1 .816.422l36.872 52.041c.609.86 1.961.315 1.805-.727z"/>
    </g>
    <g id="star">
      <path d="M41.173 6.523c5.19 8.966 11.905 21.117 11.905 21.636V5.054c0-1.158 1.639-1.39 1.961-.278l5.053 17.464c.274.948 1.61.968 1.912.029l5.531-17.152c.345-1.069 1.919-.845 1.951.278l.527 18.222c.029.993 1.332 1.341 1.852.494L82.452 6.877c.601-.979 2.109-.337 1.82.775L79.386 26.46c-.258.995.973 1.686 1.687.946L96.53 11.404c.82-.849 2.175.174 1.585 1.195L86.749 32.267c-.52.899.507 1.897 1.391 1.352l20.946-12.914c.998-.615 2.057.692 1.249 1.541l-16.66 17.499c-.705.741.025 1.937 1.006 1.649l19.847-5.832c1.099-.323 1.789 1.155.837 1.791L98.6 48.549c-.822.549-.434 1.832.555 1.832h17.34c1.113 0 1.393 1.545.351 1.936L99.59 58.8c-.913.343-.845 1.656.097 1.903l15.179 3.989c1.097.288.943 1.891-.189 1.965l-14.653.963c-.994.065-1.292 1.385-.422 1.871l16.11 8.996c.982.548.451 2.049-.657 1.859l-18.285-3.14c-1.009-.173-1.596 1.102-.808 1.755l17.084 14.173c.89.738.025 2.147-1.036 1.687l-19.606-8.494c-.928-.402-1.798.67-1.213 1.496l13.044 18.401c.674.951-.548 2.091-1.45 1.352L85.194 93.156c-.785-.644-1.919.157-1.575 1.112l6.696 18.577c.392 1.088-1.068 1.862-1.749.928L76.529 97.257c-.592-.813-1.879-.341-1.806.662l1.303 17.757c.082 1.118-1.457 1.503-1.911.478l-7.4-16.679c-.403-.908-1.74-.737-1.901.244l-2.781 16.971c-.184 1.126-1.808 1.114-1.976-.014l-2.535-17.019c-.145-.977-1.468-1.174-1.892-.282l-7.842 16.498c-.487 1.024-2.032.576-1.896-.549l2.003-16.553c.121-1.004-1.154-1.533-1.779-.738l-12.975 16.519c-.701.893-2.112.112-1.727-.957l6.984-19.376c.343-.952-.782-1.753-1.569-1.117l-17.963 14.503c-.907.733-2.121-.416-1.439-1.362l13.969-19.377c.605-.839-.305-1.931-1.239-1.489l-19.071 9.037c-1.054.499-1.964-.903-1.08-1.662l16.713-14.352c.758-.651.198-1.888-.791-1.749L7.492 79.253c-1.129.159-1.602-1.392-.576-1.89l16.471-7.993c.905-.439.668-1.79-.332-1.894L5.946 65.686c-1.123-.118-1.221-1.715-.121-1.969l16.744-3.871c.96-.222 1.054-1.553.134-1.907L5.694 51.385c-1.057-.407-.729-1.981.402-1.932l18.136.779c1.005.043 1.438-1.257.607-1.825L8.425 37.183c-.952-.651-.229-2.129.869-1.778l18.393 5.886c.978.313 1.736-.875 1.04-1.63L12.918 22.503c-.797-.865.294-2.157 1.28-1.516l19.365 12.584c.868.564 1.916-.4 1.426-1.312L23.822 11.482c-.554-1.031.81-2.011 1.61-1.157l16.811 17.928c.697.744 1.93.089 1.705-.905L39.396 7.229c-.251-1.108 1.208-1.689 1.777-.706z" />
    </g>
    <g id="square">
      <path d="M116 3H5a1 1 0 0 0-1 1v110a1 1 0 0 0 1 1h111a1 1 0 0 0 1-1V4a1 1 0 0 0-1-1z"/>
    </g>
    <g id="flower">
      <path d="M72.075 66.819C82.495 81.583 91.681 120 59.331 120c-26.358 0-17.403-35.984-9.631-53.975C44.45 78.08 30.724 86.134 24.435 88.692a.9.9 0 0 1-.165.05c-7.296 1.479-22.02-.703-23.231-21.204-1.073-18.15 20.903-22.203 35.959-21.985 1.117.016 1.541-1.641.536-2.127-16.43-7.942-35.901-19.157-11.747-37.363.057-.043.125-.084.189-.113C53.063-6.452 60.513 18.625 60.851 32.731c1.52-17.151 8.618-26.735 17.235-29.762s27.879.504 28.386 18.16c.405 14.124-18.755 22.364-28.386 24.718 21.29-2.522 34.975 3.531 40.551 12.107s1.521 30.771-14.7 30.771c-12.537 0-26.083-14.125-31.862-21.906zm0 0a31.55 31.55 0 0 0-.579-.794l.579.794z" />
    </g>
  </defs>
</svg>