<svg xmlns="http://www.w3.org/2000/svg" viewBox="0 0 1845 369">
<style>
  rect {
    width: 118px;
    height: 118px;
    fill: rgb(4, 4, 6);
    stroke: rgb(19,19,19);
  }
</style>
<rect x="2.5" y="2.5" /><rect x="125.5" y="2.5" /><rect x="248.5" y="2.5" /><rect x="371.5" y="2.5" /><rect x="494.5" y="2.5" /><rect x="617.5" y="2.5" /><rect x="740.5" y="2.5" /><rect x="863.5" y="2.5" /><rect x="986.5" y="2.5" /><rect x="1109.5" y="2.5" /><rect x="1232.5" y="2.5" /><rect x="1355.5" y="2.5" /><rect x="1478.5" y="2.5" /><rect x="1601.5" y="2.5" /><rect x="1724.5" y="2.5" /><rect x="2.5" y="125.5" /><rect x="125.5" y="125.5" /><rect x="248.5" y="125.5" /><rect x="371.5" y="125.5" /><rect x="494.5" y="125.5" /><rect x="617.5" y="125.5" /><rect x="740.5" y="125.5" /><rect x="863.5" y="125.5" /><rect x="986.5" y="125.5" /><rect x="1109.5" y="125.5" /><rect x="1232.5" y="125.5" /><rect x="1355.5" y="125.5" /><rect x="1478.5" y="125.5" /><rect x="1601.5" y="125.5" /><rect x="1724.5" y="125.5" /><rect x="2.5" y="248.5" /><rect x="125.5" y="248.5" /><rect x="248.5" y="248.5" /><rect x="371.5" y="248.5" /><rect x="494.5" y="248.5" /><rect x="617.5" y="248.5" /><rect x="740.5" y="248.5" /><rect x="863.5" y="248.5" /><rect x="986.5" y="248.5" /><rect x="1109.5" y="248.5" /><rect x="1232.5" y="248.5" /><rect x="1355.5" y="248.5" /><rect x="1478.5" y="248.5" /><rect x="1601.5" y="248.5" /><rect x="1724.5" y="248.5" />
</svg>