<svg width="148" height="34" viewBox="0 0 148 34" fill="none" xmlns="http://www.w3.org/2000/svg">
<path d="M11.3464 28.9466C11.3464 29.7249 10.9387 30.4463 10.272 30.8478L6.1889 33.3068V9.13916L18.8246 17.0001L31.4604 9.13916V33.3068L27.2464 30.346C26.6549 29.9304 26.3029 29.2529 26.3029 28.53V19.8473L18.8246 24.5063L11.3464 19.8473V28.9466Z" fill="url(#paint0_linear_98_988)"/>
<path d="M0 27.6024C0 28.3431 0.36951 29.035 0.985091 29.4469L6.18892 32.9291V8.76143L18.8246 16.6224L31.4604 8.76143V32.9291L36.6642 29.4469C37.2798 29.035 37.6493 28.3431 37.6493 27.6024V5.69477C37.6493 4.9254 37.2508 4.21091 36.5962 3.80659L32.0922 1.02452C31.3871 0.589013 30.4982 0.582614 29.7869 1.00793L19.9636 6.88198C19.2622 7.30141 18.387 7.30141 17.6856 6.88198L7.86236 1.00793C7.1511 0.582614 6.26212 0.589012 5.55705 1.02452L1.05304 3.80659C0.398471 4.21091 0 4.9254 0 5.69477V27.6024Z" fill="white"/>
<path d="M42.6493 28.434V4.69336H47.7342V28.434H42.6493Z" fill="white"/>
<path d="M52.2829 28.434V4.69336H57.3679L67.7751 20.2943V4.69336H72.86V28.434H67.7751L57.3679 12.9008V28.434H52.2829Z" fill="white"/>
<path d="M82.9015 28.434V8.79709H76.0198V4.69336H94.8681V8.79709H87.9864V28.434H82.9015Z" fill="white"/>
<path d="M93.9912 28.434L102.636 4.69336H108.466L117.111 28.434H111.721L105.517 10.425L99.3134 28.434H93.9912ZM97.7541 23.245L99.11 19.3108H111.551L112.873 23.245H97.7541Z" fill="white"/>
<path d="M120.049 28.434V4.69336H125.134V28.434H120.049Z" fill="white"/>
<path d="M129.683 28.434V4.69336H138.904C140.825 4.69336 142.418 5.03251 143.683 5.71082C144.972 6.36651 145.921 7.2483 146.531 8.3562C147.164 9.46409 147.48 10.6963 147.48 12.053C147.48 13.3191 147.175 14.5061 146.565 15.614C145.977 16.7219 145.051 17.615 143.785 18.2933C142.519 18.9716 140.881 19.3108 138.87 19.3108H134.768V28.434H129.683ZM141.921 28.434L137.141 18.0559H142.599L147.684 28.434H141.921ZM134.768 15.648H138.598C139.864 15.648 140.791 15.3427 141.378 14.7323C141.988 14.1218 142.294 13.2965 142.294 12.2564C142.294 11.239 141.988 10.4363 141.378 9.84847C140.791 9.23799 139.864 8.93276 138.598 8.93276H134.768V15.648Z" fill="white"/>
<defs>
<linearGradient id="paint0_linear_98_988" x1="18.8246" y1="9.13916" x2="18.8246" y2="33.3068" gradientUnits="userSpaceOnUse">
<stop stop-color="#400F95"/>
<stop offset="0.62" stop-color="#8E35FD"/>
<stop offset="1" stop-color="#9036FF"/>
</linearGradient>
</defs>
</svg>
